<svg xmlns="http://www.w3.org/2000/svg" viewBox="0 0 1280 400" width="1280" height="400" role="img" aria-label="ZAR — keep your documentation accurate as the code changes">
  <defs>
    <linearGradient id="bg" x1="0" y1="0" x2="1" y2="1">
      <stop offset="0" stop-color="#0b1020"/>
      <stop offset="1" stop-color="#0f172a"/>
    </linearGradient>
    <radialGradient id="glow" cx="0.78" cy="0.18" r="0.55">
      <stop offset="0" stop-color="#387ccd" stop-opacity="0.45"/>
      <stop offset="1" stop-color="#387ccd" stop-opacity="0"/>
    </radialGradient>
    <linearGradient id="word" x1="0" y1="0" x2="1" y2="0">
      <stop offset="0" stop-color="#ffffff"/>
      <stop offset="1" stop-color="#cfe0f5"/>
    </linearGradient>
    <linearGradient id="accent" x1="0" y1="0" x2="0" y2="1">
      <stop offset="0" stop-color="#5c9be0"/>
      <stop offset="1" stop-color="#387ccd"/>
    </linearGradient>
    <style>
      text { font-family: 'Inter', -apple-system, 'Segoe UI', Roboto, Helvetica, Arial, sans-serif; }
    </style>
  </defs>

  <rect width="1280" height="400" fill="url(#bg)"/>
  <rect width="1280" height="400" fill="url(#glow)"/>
  <rect x="0" y="396" width="1280" height="4" fill="url(#accent)"/>

  <!-- Left: wordmark + tagline -->
  <g>
    <text x="92" y="132" fill="#5c9be0" font-size="20" font-weight="700" letter-spacing="6">GITHUB APP · DOCS THAT STAY TRUE</text>
    <text x="88" y="258" fill="url(#word)" font-size="148" font-weight="800" letter-spacing="-2">ZAR</text>
    <text x="92" y="312" fill="#e2e8f0" font-size="29" font-weight="500">Keep your documentation accurate as the code changes.</text>
    <text x="92" y="352" fill="#64748b" font-size="18" font-weight="500">Powered by Claude + tree-sitter · PR-native</text>
  </g>

  <!-- Right: a docs "diff" card -->
  <g transform="translate(884,96)">
    <rect x="0" y="0" width="300" height="208" rx="16" fill="#111827" stroke="#1f2937" stroke-width="1.5"/>
    <circle cx="26" cy="28" r="5" fill="#ef4444"/>
    <circle cx="46" cy="28" r="5" fill="#f59e0b"/>
    <circle cx="66" cy="28" r="5" fill="#22c55e"/>
    <text x="246" y="33" fill="#475569" font-size="13" font-weight="600" letter-spacing="1">README.md</text>

    <!-- unchanged lines -->
    <rect x="24" y="62" width="180" height="10" rx="5" fill="#334155"/>
    <rect x="24" y="84" width="140" height="10" rx="5" fill="#334155"/>
    <!-- removed line -->
    <rect x="14" y="106" width="252" height="14" rx="4" fill="#7f1d1d" fill-opacity="0.35"/>
    <text x="24" y="117" fill="#f87171" font-size="13" font-weight="700">- old default: 60s</text>
    <!-- added line -->
    <rect x="14" y="126" width="252" height="14" rx="4" fill="#14532d" fill-opacity="0.5"/>
    <text x="24" y="137" fill="#4ade80" font-size="13" font-weight="700">+ new default: 300s</text>
    <!-- unchanged -->
    <rect x="24" y="156" width="200" height="10" rx="5" fill="#334155"/>

    <!-- approved check badge -->
    <circle cx="262" cy="180" r="22" fill="#22c55e"/>
    <path d="M252 180 l7 7 l13 -15" fill="none" stroke="#06240f" stroke-width="4" stroke-linecap="round" stroke-linejoin="round"/>
  </g>
</svg>
